<mxfile host="65bd71144e">
    <diagram id="_NznDc4HP8S07I2gYfNv" name="第 1 页">
        <mxGraphModel dx="1512" dy="748" grid="1" gridSize="10" guides="1" tooltips="1" connect="1" arrows="1" fold="1" page="1" pageScale="1" pageWidth="827" pageHeight="1169" math="0" shadow="0">
            <root>
                <mxCell id="0"/>
                <mxCell id="1" parent="0"/>
                <mxCell id="31" value="" style="rounded=0;whiteSpace=wrap;html=1;" parent="1" vertex="1">
                    <mxGeometry x="240" y="150" width="160" height="290" as="geometry"/>
                </mxCell>
                <mxCell id="19" value="" style="rounded=1;whiteSpace=wrap;html=1;fillColor=#f5f5f5;fontColor=#333333;strokeColor=#666666;" parent="1" vertex="1">
                    <mxGeometry x="480" y="320" width="160" height="360" as="geometry"/>
                </mxCell>
                <mxCell id="23" style="edgeStyle=none;html=1;exitX=1;exitY=0.5;exitDx=0;exitDy=0;entryX=0;entryY=0.5;entryDx=0;entryDy=0;" parent="1" source="2" target="20" edge="1">
                    <mxGeometry relative="1" as="geometry"/>
                </mxCell>
                <mxCell id="24" style="edgeStyle=none;html=1;exitX=1;exitY=0.5;exitDx=0;exitDy=0;entryX=0;entryY=0.5;entryDx=0;entryDy=0;" parent="1" source="2" target="15" edge="1">
                    <mxGeometry relative="1" as="geometry">
                        <Array as="points">
                            <mxPoint x="410" y="390"/>
                            <mxPoint x="410" y="470"/>
                        </Array>
                    </mxGeometry>
                </mxCell>
                <mxCell id="25" style="edgeStyle=none;html=1;exitX=1;exitY=0.5;exitDx=0;exitDy=0;entryX=0;entryY=0.5;entryDx=0;entryDy=0;" parent="1" source="2" target="16" edge="1">
                    <mxGeometry relative="1" as="geometry">
                        <Array as="points">
                            <mxPoint x="410" y="390"/>
                            <mxPoint x="410" y="550"/>
                        </Array>
                    </mxGeometry>
                </mxCell>
                <mxCell id="40" value="Clain timeout job&lt;br&gt;(Only one consumer at a time)" style="edgeStyle=none;html=1;exitX=0.5;exitY=1;exitDx=0;exitDy=0;dashed=1;entryX=0;entryY=0.5;entryDx=0;entryDy=0;" parent="1" source="2" target="41" edge="1">
                    <mxGeometry relative="1" as="geometry">
                        <mxPoint x="320" y="620" as="targetPoint"/>
                        <Array as="points">
                            <mxPoint x="320" y="630"/>
                        </Array>
                    </mxGeometry>
                </mxCell>
                <mxCell id="2" value="&lt;span style=&quot;&quot;&gt;Redis Stream&lt;/span&gt;" style="rounded=0;whiteSpace=wrap;html=1;fillColor=#f8cecc;strokeColor=#b85450;" parent="1" vertex="1">
                    <mxGeometry x="260" y="360" width="120" height="60" as="geometry"/>
                </mxCell>
                <mxCell id="43" value="" style="edgeStyle=none;html=1;fontColor=#000000;dashed=1;" edge="1" parent="1" source="4" target="2">
                    <mxGeometry relative="1" as="geometry"/>
                </mxCell>
                <mxCell id="4" value="Defer Job ZSet" style="rounded=0;whiteSpace=wrap;html=1;fillColor=#d5e8d4;strokeColor=#82b366;" parent="1" vertex="1">
                    <mxGeometry x="260" y="270" width="120" height="60" as="geometry"/>
                </mxCell>
                <mxCell id="35" style="edgeStyle=none;html=1;exitX=0.5;exitY=0;exitDx=0;exitDy=0;entryX=0;entryY=0.5;entryDx=0;entryDy=0;" parent="1" source="6" target="34" edge="1">
                    <mxGeometry relative="1" as="geometry">
                        <Array as="points">
                            <mxPoint x="320" y="80"/>
                        </Array>
                    </mxGeometry>
                </mxCell>
                <mxCell id="37" value="process dead message" style="edgeLabel;html=1;align=center;verticalAlign=middle;resizable=0;points=[];" parent="35" vertex="1" connectable="0">
                    <mxGeometry x="0.0988" y="2" relative="1" as="geometry">
                        <mxPoint as="offset"/>
                    </mxGeometry>
                </mxCell>
                <mxCell id="6" value="Dead Message ZSet" style="rounded=0;whiteSpace=wrap;html=1;fillColor=#d5e8d4;strokeColor=#82b366;" parent="1" vertex="1">
                    <mxGeometry x="260" y="180" width="120" height="60" as="geometry"/>
                </mxCell>
                <mxCell id="12" value="Create Defer Job" style="edgeStyle=none;html=1;exitX=0.75;exitY=0;exitDx=0;exitDy=0;entryX=0;entryY=0.5;entryDx=0;entryDy=0;" parent="1" source="11" target="4" edge="1">
                    <mxGeometry relative="1" as="geometry">
                        <Array as="points">
                            <mxPoint x="150" y="300"/>
                        </Array>
                    </mxGeometry>
                </mxCell>
                <mxCell id="14" value="Create Job" style="edgeStyle=none;html=1;" parent="1" source="11" target="2" edge="1">
                    <mxGeometry relative="1" as="geometry"/>
                </mxCell>
                <mxCell id="11" value="Producer" style="rounded=0;whiteSpace=wrap;html=1;fillColor=#ffe6cc;strokeColor=#d79b00;" parent="1" vertex="1">
                    <mxGeometry x="60" y="360" width="120" height="60" as="geometry"/>
                </mxCell>
                <mxCell id="15" value="Consumer Daemon" style="rounded=0;whiteSpace=wrap;html=1;fillColor=#dae8fc;strokeColor=#6c8ebf;" parent="1" vertex="1">
                    <mxGeometry x="500" y="440" width="120" height="60" as="geometry"/>
                </mxCell>
                <mxCell id="16" value="Consumer Daemon" style="rounded=0;whiteSpace=wrap;html=1;fillColor=#dae8fc;strokeColor=#6c8ebf;" parent="1" vertex="1">
                    <mxGeometry x="500" y="520" width="120" height="60" as="geometry"/>
                </mxCell>
                <mxCell id="28" style="edgeStyle=none;html=1;exitX=1;exitY=0.25;exitDx=0;exitDy=0;entryX=1;entryY=0.5;entryDx=0;entryDy=0;" parent="1" source="20" target="6" edge="1">
                    <mxGeometry relative="1" as="geometry">
                        <Array as="points">
                            <mxPoint x="650" y="375"/>
                            <mxPoint x="650" y="290"/>
                            <mxPoint x="650" y="210"/>
                        </Array>
                    </mxGeometry>
                </mxCell>
                <mxCell id="29" value="Dead message" style="edgeLabel;html=1;align=center;verticalAlign=middle;resizable=0;points=[];" parent="28" vertex="1" connectable="0">
                    <mxGeometry x="0.1116" y="5" relative="1" as="geometry">
                        <mxPoint x="-1" y="-5" as="offset"/>
                    </mxGeometry>
                </mxCell>
                <mxCell id="20" value="Consumer Daemon" style="rounded=0;whiteSpace=wrap;html=1;fillColor=#dae8fc;strokeColor=#6c8ebf;" parent="1" vertex="1">
                    <mxGeometry x="500" y="360" width="120" height="60" as="geometry"/>
                </mxCell>
                <mxCell id="21" value="&lt;span style=&quot;font-family: Helvetica; font-size: 12px; font-style: normal; font-variant-ligatures: normal; font-variant-caps: normal; letter-spacing: normal; orphans: 2; text-align: center; text-indent: 0px; text-transform: none; widows: 2; word-spacing: 0px; -webkit-text-stroke-width: 0px; text-decoration-thickness: initial; text-decoration-style: initial; text-decoration-color: initial; float: none; display: inline !important;&quot;&gt;consumer group&lt;/span&gt;" style="text;whiteSpace=wrap;html=1;labelBackgroundColor=none;fontColor=#000000;fontStyle=1" parent="1" vertex="1">
                    <mxGeometry x="511.25" y="330" width="97.5" height="30" as="geometry"/>
                </mxCell>
                <mxCell id="26" value="xgroupread" style="text;html=1;align=center;verticalAlign=middle;resizable=0;points=[];autosize=1;strokeColor=none;fillColor=none;" parent="1" vertex="1">
                    <mxGeometry x="410" y="390" width="80" height="30" as="geometry"/>
                </mxCell>
                <mxCell id="34" value="Consumer" style="rounded=0;whiteSpace=wrap;html=1;fillColor=#e1d5e7;strokeColor=#9673a6;" parent="1" vertex="1">
                    <mxGeometry x="490" y="50" width="120" height="60" as="geometry"/>
                </mxCell>
                <mxCell id="41" value="Consumer Daemon" style="rounded=0;whiteSpace=wrap;html=1;fillColor=#dae8fc;strokeColor=#6c8ebf;" parent="1" vertex="1">
                    <mxGeometry x="500" y="600" width="120" height="60" as="geometry"/>
                </mxCell>
                <mxCell id="42" value="job may process more than once as timeout" style="text;html=1;align=center;verticalAlign=middle;resizable=0;points=[];autosize=1;strokeColor=none;fillColor=none;fontStyle=2" parent="1" vertex="1">
                    <mxGeometry x="220" y="650" width="260" height="30" as="geometry"/>
                </mxCell>
                <mxCell id="30" value="Trigger delayed job&lt;br&gt;(enqueue)" style="edgeStyle=none;html=1;exitX=0;exitY=0.25;exitDx=0;exitDy=0;entryX=1;entryY=0.5;entryDx=0;entryDy=0;labelBackgroundColor=none;" parent="1" source="20" target="4" edge="1">
                    <mxGeometry x="0.3846" y="-30" relative="1" as="geometry">
                        <Array as="points">
                            <mxPoint x="440" y="375"/>
                            <mxPoint x="440" y="300"/>
                        </Array>
                        <mxPoint x="30" y="30" as="offset"/>
                    </mxGeometry>
                </mxCell>
            </root>
        </mxGraphModel>
    </diagram>
</mxfile>
